<svg width="32" height="32" fill="none" xmlns="http://www.w3.org/2000/svg"><path d="M16 2a14 14 0 100 28 14 14 0 000-28zm-5.3 20.1a1 1 0 01-1.3.4A1 1 0 019 21l1-1.6a.5.5 0 01.4-.2h.2c.7 0 1.2.4 1.3.8l-1.2 2zm8-3.1H8.5a1 1 0 01-1-1c0-.5.5-1 1-1h3l3.6-6-1.2-2a1 1 0 01.7-1.5 1 1 0 011 .5l.6 1 .6-1a1 1 0 011.4-.3c.4.3.6.9.3 1.3l-1.2 2-1 1.9-2.5 4.2h3.6c.4 0 1 .2 1.2.6.2.4.4.6.4 1l-.1.3zm5 0h-1.8l1.3 2.1a1 1 0 01-.3 1.4 1 1 0 01-1 0 1 1 0 01-.4-.4l-1.8-3-1.2-2-1.4-2.5a2.4 2.4 0 010-2.4l.4-.7 3.3 5.6h2.8c.5 0 1 .4 1 .9a1 1 0 01-1 1z" fill="#fff"/></svg>