<svg width="172" height="29" fill="none" xmlns="http://www.w3.org/2000/svg"><path d="M46.4 19h.3l1 1.1c-.5.7-1.2 1.2-2 1.5-.7.4-1.7.5-2.7.5-1 0-1.9-.1-2.6-.5a5.8 5.8 0 01-3.3-3.4 8 8 0 010-5.4c.4-.8.8-1.5 1.4-2.1a6 6 0 012-1.4c.8-.3 1.7-.5 2.6-.5a6.4 6.4 0 014.4 1.7l-.8 1.2-.2.1-.3.1H46a7.3 7.3 0 01-.7-.5A3.7 3.7 0 0044 11a4.4 4.4 0 00-2.5.2c-.5.2-.9.5-1.2 1a4 4 0 00-.8 1.4 6 6 0 00-.3 1.9c0 .7 0 1.4.3 2l.8 1.4a3.6 3.6 0 002.8 1.2 6.6 6.6 0 001.6-.2A3.3 3.3 0 0046 19l.2-.1h.2zM57 20v2h-7.7V9h2.5v11H57zm13.7-4.5c0 1-.2 1.8-.5 2.6a6.2 6.2 0 01-6.1 4 7 7 0 01-2.7-.5 6.2 6.2 0 01-3.5-3.5c-.3-.8-.4-1.7-.4-2.6a6.3 6.3 0 011.8-4.8c.6-.6 1.3-1 2-1.4a7.2 7.2 0 016.2.4 6 6 0 013 4l.2 1.8zm-2.5 0a6 6 0 00-.3-2l-.8-1.4c-.4-.4-.8-.7-1.3-.9-.5-.2-1.1-.3-1.7-.3-.7 0-1.2.1-1.8.3a3.6 3.6 0 00-2 2.4 6 6 0 00-.4 1.9c0 .7.1 1.3.3 2 .2.5.5 1 .9 1.4l1.2.9c.6.2 1.1.3 1.8.3.6 0 1.2-.1 1.7-.3.5-.3 1-.6 1.3-1 .3-.3.6-.8.8-1.4a6 6 0 00.3-2zM78 20c.5 0 .9 0 1.3-.2a2.6 2.6 0 001.5-1.7l.2-1.3V9h2.4v7.8a6 6 0 01-.4 2.1 4.9 4.9 0 01-2.7 2.8 6 6 0 01-2.3.4 6 6 0 01-2.2-.4 5 5 0 01-1.7-1 5 5 0 01-1.1-1.8c-.3-.6-.4-1.3-.4-2.1V9H75v7.8l.2 1.3.6 1c.3.3.6.6 1 .7.3.2.8.2 1.2.2zm19.7-4.5a7 7 0 01-.5 2.6 6 6 0 01-3.4 3.4c-.8.3-1.7.5-2.7.5h-5V9h5c1 0 1.9.1 2.7.5a6 6 0 013.4 3.4c.3.8.5 1.6.5 2.6zm-2.5 0a6 6 0 00-.3-2c-.2-.5-.4-1-.8-1.4-.3-.4-.8-.7-1.3-.9-.5-.2-1-.3-1.7-.3h-2.5v9.2H91c.6 0 1.2-.1 1.7-.3.5-.3 1-.6 1.3-1 .4-.3.6-.8.8-1.4a6 6 0 00.3-2zm9.5 4.6c.5 0 .8 0 1.1-.2.3 0 .6-.2.8-.4l.4-.6a2.3 2.3 0 000-1.5c-.1-.3-.3-.5-.5-.6a2 2 0 00-.7-.4 4 4 0 00-1.1-.1h-2.4V20h2.4zm-2.4-9.2v3.7h1.9c.8 0 1.4-.1 1.9-.4.4-.3.6-.8.6-1.5 0-.6-.2-1.1-.6-1.4-.4-.3-1-.4-1.8-.4h-2zm2-2c.9 0 1.6.2 2.2.3.6.2 1.1.4 1.5.7.4.3.7.7.8 1.1a3.7 3.7 0 01.2 2.3l-.4.8a3 3 0 01-.8.7l-1 .5c1.8.4 2.7 1.3 2.7 2.9l-.3 1.5c-.2.5-.5.9-1 1.2-.4.4-.8.6-1.4.8-.6.2-1.3.3-2 .3h-5V9h4.5zM117 20c.5 0 .9 0 1.3-.2a2.6 2.6 0 001.5-1.7l.2-1.3V9h2.4v7.8a6 6 0 01-.4 2.1 4.9 4.9 0 01-2.7 2.8 6 6 0 01-2.3.4 6 6 0 01-2.2-.4 5 5 0 01-1.7-1 5 5 0 01-1.1-1.8c-.3-.6-.4-1.3-.4-2.1V9h2.4v7.8l.2 1.3.6 1c.3.3.6.6 1 .7.3.2.8.2 1.2.2zm19.7-4.5a7 7 0 01-.5 2.6 6 6 0 01-3.4 3.4c-.8.3-1.7.5-2.7.5h-5V9h5c1 0 1.9.1 2.7.5a6 6 0 013.4 3.4c.3.8.5 1.6.5 2.6zm-2.5 0a6 6 0 00-.3-2c-.2-.5-.4-1-.8-1.4-.3-.4-.8-.7-1.3-.9-.5-.2-1-.3-1.7-.3h-2.5v9.2h2.5c.6 0 1.2-.1 1.7-.3.5-.3 1-.6 1.3-1 .4-.3.6-.8.8-1.4a6 6 0 00.3-2zm15.4 0v5.2a7 7 0 01-2.2 1.1 8.3 8.3 0 01-5.2-.2c-.9-.3-1.6-.7-2.2-1.3a6 6 0 01-1.4-2.1 7 7 0 01-.5-2.7 6.1 6.1 0 011.8-4.8 6 6 0 012.1-1.4 7.7 7.7 0 014.3-.3 7 7 0 012.4.8l.9.7-.7 1.1-.5.4c-.1 0-.3 0-.5-.2l-.6-.3-.7-.3a5.3 5.3 0 00-1.9-.3c-.6 0-1.2.1-1.7.3-.5.2-1 .6-1.3 1-.4.4-.7.8-.9 1.4-.2.6-.3 1.2-.3 1.9s.1 1.4.3 2l1 1.5c.3.4.8.7 1.4.9a5 5 0 001.8.3 5 5 0 002.4-.5v-2.4h-1.7l-.3-.1-.2-.4v-1.3h4.4zm4.7-4.6v3.6h4.6v1.9h-4.6V20h5.8V22h-8.2V9h8.2v2h-5.8zm17 0h-3.9V22H165V11h-4V9h10.3v2zM21.6 13l.1-1.4a5.8 5.8 0 00-11-2.6c-.3-.2-.8-.3-1.3-.3-2 0-3.6 1.6-3.6 3.6l.1.8a5.1 5.1 0 00-4.4 5c0 2.8 2.3 5.1 5 5.1H21a5 5 0 00.6-10.1z" fill="#fff"/></svg>