<svg width="47" height="54" fill="none" xmlns="http://www.w3.org/2000/svg"><path d="M44 19h-1.2v-6.2-.1c0-.2-.1-.5-.3-.7L32.3.4 32 .1l-.2-.2H6.2a2 2 0 00-2 2v17H3a3 3 0 00-3 3v15.4a3 3 0 003 3h1.2v10.5c0 1.2 1 2.1 2.1 2.1h34.4c1.1 0 2-1 2-2V40.2H44a3 3 0 003-3V22a3 3 0 00-3-3zM6.3 2h24.1v10.7c0 .6.5 1 1 1h9.3V19H6.3V2zM22 30.7c-2.5-1-4.2-2.3-4.2-4.5 0-2.6 2.2-4.6 5.8-4.6a9 9 0 013.8.8l-.7 2.7c-1-.5-2-.7-3.2-.7-1.5 0-2.2.7-2.2 1.5 0 1 .8 1.4 2.8 2.1 2.7 1 4 2.4 4 4.5 0 2.6-2 4.7-6.2 4.7a10 10 0 01-4.3-1l.7-2.7c1.2.6 2.5.9 3.8 1 1.6 0 2.4-.7 2.4-1.7s-.7-1.5-2.5-2.1zm-18-1c0-5.2 3.8-8.1 8.4-8.1 1.8 0 3.1.4 3.7.7l-.7 2.7c-.9-.4-1.9-.6-2.9-.6-2.7 0-4.8 1.7-4.8 5 0 3 1.8 5 4.8 5 1.1 0 2.2-.2 3-.5l.4 2.7c-.6.3-2 .6-3.8.6-5.3 0-8-3.3-8-7.6zm36.8 20.8H6.3v-10h34.4v10zm-2.8-13.5h-4L29 21.7h3.8l1.8 6.4 1.4 5.5 1.4-5.4 2-6.5H43L38 37z" fill="#ED4C5C"/></svg>