<svg width="70" height="70" fill="none" xmlns="http://www.w3.org/2000/svg"><path d="M23.7 35.7c0-1.5-1-2.4-2.8-2.4l-1.4.2v4.7h1.2c1.9 0 3-1 3-2.5zM34.8 33.4l-1.7.1V44h1.3c3.2 0 5.3-1.7 5.3-5.5 0-3.3-1.9-5-5-5z" fill="#ED4C5C"/><path d="M55.9 27.3h-1.3v-6.2-.2c0-.2-.1-.5-.3-.6L44 8.3a1 1 0 00-.5-.3H17.5c-1.1 0-2 1-2 2.1v17.2H14a3 3 0 00-3 3v15.8a3 3 0 003 3h1.3V60c0 1.2 1 2.1 2.1 2.1h35c1.1 0 2-1 2-2.1V49H56a3 3 0 003-3V30.3a3 3 0 00-3-3zM17.5 10.1h24.6V21c0 .5.4 1 1 1h9.4v5.3h-35V10.1zm26 28.2a8 8 0 01-2.6 6.4c-1.7 1.4-4.2 2-7.3 2-1.9 0-3.2 0-4-.2V31c1.3-.2 3-.4 4.8-.4 3 0 5 .6 6.4 1.7 1.7 1.3 2.7 3.2 2.7 6zM16 46.6V31c1.1-.2 2.7-.4 4.8-.4 2.2 0 3.8.5 4.9 1.3 1 .8 1.7 2.1 1.7 3.7a5 5 0 01-1.5 3.7c-1.2 1.2-3 1.7-5.1 1.7h-1.2v5.6h-3.6zm36.6 12.7h-35V49.1h35v10.2zm3-25.6h-6v3.6H55v3h-5.6v6.3h-3.6V30.8h9.6v2.9z" fill="#ED4C5C"/></svg>