<svg width="66" height="66" fill="none" xmlns="http://www.w3.org/2000/svg"><path fill-rule="evenodd" clip-rule="evenodd" d="M34 3.5L55.9 11c.5.1 1 .7 1 1.3v31.1c0 .6-.4 1.3-.9 1.7L33.8 62.4c-.2.2-.5.3-.8.3-.3 0-.6-.1-.8-.3L10 45c-.5-.4-.8-1.1-.8-1.7v-31c0-.7.4-1.3 1-1.4L32 3.5l1-.1h1zM33 57l19.2-15V14.7L33 8.1l-19.2 6.5v27.6l19.2 15z" fill="#ED4C5C"/><path fill-rule="evenodd" clip-rule="evenodd" d="M26 34l-5 5a.5.5 0 000 .8l2.2 2.2c.2.2.5.2.7 0l5-5a9.3 9.3 0 10-3-3zm11.5-8.5a5.2 5.2 0 10-7.3 7.3 5.2 5.2 0 007.3-7.3z" fill="#ED4C5C"/></svg>