<svg width="80" height="80" fill="none" xmlns="http://www.w3.org/2000/svg"><path d="M48.8 55.2H43v-19c0-.3-.3-.6-.7-.6h-4.7c-.3 0-.6.3-.6.6v19h-5.8c-.5 0-.8.6-.4 1l8.7 11a.6.6 0 001 0l8.7-11c.4-.4 0-1-.5-1z" fill="#ED4C5C"/><path d="M63.4 28.6a25 25 0 00-46.8 0 15.6 15.6 0 004 30.8h3.1c.4 0 .7-.3.7-.6V54c0-.4-.3-.7-.6-.7h-3.2a9.6 9.6 0 01-9.7-10 9.6 9.6 0 017.2-9l3-.8 1.1-2.9a18.8 18.8 0 016.9-8.8 19 19 0 0126 3.9 19 19 0 012.7 5l1.1 2.8 3 .8A9.7 9.7 0 0163 52.7c-1.2.5-2.4.7-3.7.7h-3.1c-.4 0-.7.3-.7.7v4.6c0 .4.3.7.6.7h3.2a15.6 15.6 0 004-30.8z" fill="#ED4C5C"/></svg>